<?xml version="1.0" encoding="utf-8"?>
<!-- Generator: Adobe Illustrator 22.1.0, SVG Export Plug-In . SVG Version: 6.00 Build 0)  -->
<svg version="1.1" id="Layer_1" xmlns="http://www.w3.org/2000/svg" xmlns:xlink="http://www.w3.org/1999/xlink" x="0px" y="0px"
	 viewBox="0 0 2500 464" style="enable-background:new 0 0 2500 464;" xml:space="preserve">
<style type="text/css">
	.st0{fill:#FFFFFF;stroke:#FFFFFF;stroke-miterlimit:10;}
</style>
<path class="st0" d="M215.2,0c21.3,0,41,1.7,59,6.6c18,3.3,32.8,9.8,45.9,18s23,19.7,29.5,34.4c6.6,14.7,9.8,32.8,9.8,52.5
	c0,22.9-4.9,42.6-16.4,57.4c-9.8,14.7-26.2,27.9-45.9,37.7c27.9,8.2,49.2,22.9,62.3,42.6c13.1,19.7,21.3,44.3,21.3,72.1
	c0,22.9-4.9,42.6-13.1,59s-21.3,31.2-36.1,41c-14.8,9.9-32.8,18.1-52.5,23s-39.3,8.2-59,8.2H0.4V0H215.2z M202,183.6
	c18,0,32.8-4.9,44.3-13.1c11.5-8.2,16.4-23,16.4-41c0-9.8-1.6-19.7-4.9-26.2c-3.3-6.6-8.2-11.5-14.8-16.4
	c-6.6-3.3-13.1-6.6-21.3-8.2s-16.4-1.6-26.2-1.6h-95.1v106.6H202V183.6z M207,377.1c9.8,0,19.7-1.6,27.9-3.3
	c8.2-1.7,16.4-4.9,23-9.9c6.6-4.9,11.5-9.8,16.4-18c3.3-8.2,6.6-18.1,6.6-29.5c0-23-6.6-39.3-19.7-50.8
	c-13.1-9.8-31.2-14.7-52.5-14.7H100.4v126.2L207,377.1L207,377.1z M523.4,375.4c13.1,13.1,32.8,19.7,59,19.7
	c18,0,34.4-4.9,47.5-13.1c13.1-9.9,21.3-19.7,24.6-29.5h80.3c-13.1,39.3-32.8,67.2-59,85.3c-26.2,16.4-57.4,26.2-95.1,26.2
	c-26.2,0-49.2-4.9-70.5-13.1s-37.7-19.7-52.5-36.1C443.1,400,431.6,382,425,360.7c-8.2-21.3-11.5-44.3-11.5-70.5
	c0-24.6,3.3-47.5,11.5-68.9c8.2-21.3,19.7-39.3,34.4-55.7c14.8-14.8,32.8-27.9,52.5-36.1c21.3-8.2,42.6-13.1,68.9-13.1
	c27.9,0,52.5,4.9,73.8,16.4s37.7,24.6,50.8,44.3c13.1,18,23,39.3,29.5,62.3c3.3,23,4.9,45.9,3.3,72.1H500.4
	C500.4,337.7,510.3,362.3,523.4,375.4L523.4,375.4z M626.7,203.3c-11.5-11.5-29.5-18-50.8-18c-14.8,0-26.2,3.3-36.1,8.2
	c-9.8,4.9-16.4,11.5-23,18c-6.6,6.6-9.8,14.8-11.5,23c-1.6,8.2-3.3,14.7-3.3,21.3h147.6C646.4,231.2,638.2,214.8,626.7,203.3
	L626.7,203.3z M866,0v170.5h1.6c11.5-19.7,26.2-32.8,44.3-41s34.4-13.1,52.5-13.1c24.6,0,44.3,3.3,59,9.8
	c14.8,6.6,27.9,16.4,36.1,27.9c8.2,11.5,14.8,26.2,18,42.6c3.3,16.4,4.9,34.4,4.9,55.7v201.7h-90.2V268.9c0-27.9-4.9-47.5-13.1-60.7
	s-23-19.7-44.3-19.7c-24.6,0-42.6,8.2-52.5,21.3C871,224.6,866,249.2,866,282v172.1h-90.2V0H866z M1148,173.8
	c9.8-14.8,21.3-24.6,36.1-34.4c14.8-8.2,31.2-14.7,49.2-18s36.1-4.9,54.1-4.9c16.4,0,32.8,1.6,50.8,3.3c16.4,1.6,32.8,6.5,45.9,13.1
	c14.8,6.5,24.6,16.4,34.4,27.9c8.2,11.5,13.1,27.9,13.1,47.6v172.1c0,14.8,1.6,29.5,3.3,42.6c1.7,13.1,6.5,24.6,11.5,31.1h-91.8
	c-3.3-3.3-4.9-9.8-6.6-14.7c-1.6-4.9-1.6-11.5-1.6-16.4c-14.8,14.7-31.2,24.6-50.8,31.1c-19.7,6.6-39.3,8.2-59,8.2
	c-16.4,0-29.5-1.6-44.3-6.5c-13.1-3.3-24.6-9.9-36.1-18.1c-9.8-8.2-18-18-24.6-31.1c-4.9-13.1-8.2-26.2-8.2-44.3
	c0-18.1,3.3-34.4,9.8-45.9c6.6-11.5,14.8-21.3,24.6-29.5c9.8-6.5,23-13.1,36.1-16.4s26.2-6.5,41-8.2l39.3-4.9
	c13.1-1.6,24.6-3.3,34.4-4.9c9.8-3.3,18-6.6,24.6-11.5s8.2-11.5,8.2-21.3s-1.6-18-4.9-23c-3.3-4.9-8.2-9.8-13.1-13.1
	s-11.5-4.9-18-6.5c-6.6-1.7-14.8-1.7-23-1.7c-18,0-31.2,3.3-41,11.5s-16.4,21.3-18,37.7h-90.2C1133.3,204.9,1139.8,186.9,1148,173.8
	L1148,173.8z M1326.7,301.7c-4.9,1.6-11.5,3.3-18,4.9c-6.6,1.7-13.1,1.7-21.3,3.3c-6.5,1.6-14.7,1.6-21.3,3.3l-19.7,4.9
	c-6.6,1.6-13.1,4.9-16.4,8.2c-4.9,3.3-8.2,8.2-11.5,13.1c-4.9,6.6-4.9,13.1-4.9,21.3c0,8.2,1.6,14.8,4.9,19.7
	c3.3,4.9,6.6,9.9,11.5,13.1c4.9,3.3,11.5,4.9,18,6.6c6.6,1.6,13.1,1.6,21.3,1.6c18.1,0,31.2-3.3,41-8.2c9.9-6.5,16.4-13.1,21.3-21.3
	c4.9-8.2,8.2-16.4,8.2-24.6c1.6-8.2,1.6-14.7,1.6-19.7v-34.4C1336.6,296.8,1331.7,300,1326.7,301.7L1326.7,301.7z M1567.8,124.6
	v45.9h1.6c11.5-19.7,26.2-32.8,44.3-41c18.1-8.2,37.7-13.1,55.7-13.1c24.6,0,44.3,3.3,59,9.8c16.4,6.6,27.9,16.4,36.1,27.9
	s14.7,26.2,19.7,42.6c3.3,16.4,4.9,34.4,4.9,55.7v201.7h-90.2V268.9c0-27.9-4.9-47.5-13.1-60.7c-8.2-13.1-23-21.3-45.9-21.3
	c-24.6,0-42.6,9.8-54.1,24.6s-16.4,39.3-16.4,72.1v172.1h-90.2V124.6H1567.8z M1990.7,183.6c-14.7,0-26.2,3.3-36.1,9.9
	c-9.8,6.5-18,14.7-24.6,26.2c-6.6,9.8-9.8,21.3-13.1,34.4c-3.3,13.1-3.3,24.6-3.3,37.7c0,11.5,1.6,24.6,3.3,36.1
	c3.3,13.1,6.6,23,13.1,32.8c6.6,9.9,13.1,18.1,23,24.6c9.8,6.6,21.3,9.9,36.1,9.9c21.3,0,37.7-6.6,50.8-18.1
	c11.5-11.5,19.7-27.9,21.3-49.2h86.9c-6.5,44.3-22.9,77.1-50.8,100c-27.9,22.9-63.9,34.4-108.2,34.4c-24.6,0-47.5-4.9-67.2-13.1
	c-21.3-8.2-37.7-19.7-52.5-34.4s-26.2-32.8-34.4-52.5c-8.2-21.3-11.5-42.6-11.5-67.2c0-26.2,3.3-49.2,11.5-70.5s18.1-41,32.8-57.4
	c14.8-16.4,32.8-27.9,52.5-37.7c21.3-8.2,44.3-13.1,70.5-13.1c19.7,0,37.7,3.3,55.7,8.2c18,4.9,34.4,13.1,47.5,22.9
	c14.8,9.9,26.2,23,34.4,39.3c8.2,14.8,13.1,34.4,14.8,55.7h-88.5C2051.4,203.3,2030.1,183.6,1990.7,183.6L1990.7,183.6z M482.4,31.2
	H666v44.3H482.4V31.2z M2284.2,375.4c13.1,13.1,34.4,19.7,59,19.7c18.1,0,34.4-4.9,47.5-13.1c13.1-9.9,21.3-19.7,24.6-29.5h78.7
	c-13.1,39.3-32.8,67.2-59,85.3c-26.2,16.4-57.4,26.2-95.1,26.2c-26.2,0-49.2-4.9-70.5-13.1c-20.2-7.5-38.2-19.9-52.4-36.1
	c-14.8-14.8-26.2-32.8-32.8-54.1c-8.2-21.3-11.5-44.3-11.5-70.5c0-24.6,3.3-47.5,11.5-68.9c7.9-20.6,19.6-39.5,34.4-55.7
	c14.8-14.8,32.8-27.9,52.5-36.1c21.3-8.2,44.3-13.1,68.9-13.1c27.9,0,52.4,4.9,72.1,16.4c21.3,11.5,37.7,24.6,50.8,44.3
	c13.1,18,23,39.3,29.5,62.3c6.5,22.9,8.2,47.5,6.5,73.8h-237.7C2261.3,337.7,2271.1,362.3,2284.2,375.4L2284.2,375.4z M2389.2,203.3
	c-11.5-11.5-29.5-18-50.8-18c-14.8,0-26.2,3.3-36.1,8.2c-9.8,4.9-18,11.5-22.9,18c-4.9,6.6-9.9,14.8-11.5,23s-3.3,14.7-3.3,21.3
	h147.6C2407.2,231.2,2399,214.8,2389.2,203.3L2389.2,203.3z"/>
</svg>
