<?xml version="1.0" encoding="utf-8"?>
<!-- Generator: Adobe Illustrator 22.1.0, SVG Export Plug-In . SVG Version: 6.00 Build 0)  -->
<svg version="1.1" id="Layer_1" xmlns="http://www.w3.org/2000/svg" xmlns:xlink="http://www.w3.org/1999/xlink" x="0px" y="0px"
	 viewBox="0 0 50 51" style="enable-background:new 0 0 50 51;" xml:space="preserve">
<style type="text/css">
	.st0{fill:none;stroke:#000000;stroke-width:2;stroke-miterlimit:10;}
</style>
<g>
	<line class="st0" x1="25" y1="5.5" x2="25" y2="1.5"/>
	<line class="st0" x1="16" y1="7.9" x2="14" y2="4.4"/>
	<line class="st0" x1="9.4" y1="14.5" x2="5.9" y2="12.5"/>
	<line class="st0" x1="7" y1="23.5" x2="3" y2="23.5"/>
	<line class="st0" x1="9.4" y1="32.5" x2="5.9" y2="34.5"/>
	<line class="st0" x1="40.6" y1="32.5" x2="44.1" y2="34.5"/>
	<line class="st0" x1="43" y1="23.5" x2="47" y2="23.5"/>
	<line class="st0" x1="40.6" y1="14.5" x2="44.1" y2="12.5"/>
	<line class="st0" x1="34" y1="7.9" x2="36" y2="4.4"/>
	<path class="st0" d="M39,22.5c0-8.3-7.2-14.9-15.6-13.9C17,9.3,11.8,14.4,11.1,20.8c-0.4,3.4,0.4,6.6,2.1,9.2
		c3.3,5.2,4.8,11.3,4.8,17.4v1.1h9h5V47c0-6.2,1.9-12.1,5.1-17.4C38.3,27.5,39,25.1,39,22.5z"/>
	<line class="st0" x1="14" y1="44.5" x2="36" y2="44.5"/>
	<line class="st0" x1="13" y1="40.5" x2="37" y2="40.5"/>
</g>
</svg>
