<?xml version="1.0" encoding="utf-8"?>
<!-- Generator: Adobe Illustrator 22.1.0, SVG Export Plug-In . SVG Version: 6.00 Build 0)  -->
<svg version="1.1" id="Layer_1" xmlns="http://www.w3.org/2000/svg" xmlns:xlink="http://www.w3.org/1999/xlink" x="0px" y="0px"
	 viewBox="0 0 48.8 48.8" style="enable-background:new 0 0 48.8 48.8;" xml:space="preserve">
<style type="text/css">
	.st0{fill:none;stroke:#FFFFFF;stroke-width:2;stroke-miterlimit:10;}
	.st1{fill:none;stroke:#FFFFFF;stroke-width:2;stroke-linejoin:round;stroke-miterlimit:10;}
	.st2{fill:none;stroke:#FFFFFF;stroke-width:2;stroke-linejoin:round;stroke-miterlimit:10;stroke-dasharray:2,2;}
</style>
<g>
	<ellipse class="st0" cx="18" cy="17.9" rx="16.5" ry="16.5"/>
	<path class="st1" d="M30.3,36.6l6.3-6.3c0.4-0.4,1-0.4,1.4,0l7.8,7.8c2.1,2.1,2.1,5.6,0,7.8l0,0c-2.1,2.1-5.6,2.1-7.8,0l-7.8-7.8
		C29.9,37.6,29.9,36.9,30.3,36.6z"/>
	<line class="st0" x1="35" y1="31.8" x2="30.9" y2="27.7"/>
	<line class="st0" x1="31.9" y1="34.9" x2="27.8" y2="30.8"/>
	<line class="st2" x1="37.4" y1="37.3" x2="42" y2="41.9"/>
	<circle class="st0" cx="18" cy="11.9" r="4.5"/>
	<path class="st0" d="M29.5,29.6V25c0-3-2.2-5.6-5.1-6.5l-0.8-0.2L17.9,24l-5.7-5.7l-0.7,0.2c-2.9,0.9-5,3.5-5,6.5v4.6"/>
</g>
</svg>
